# Blender v2.92.0 OBJ File: ''
# www.blender.org
mtllib tent_blend_8.mtl
o tent
v 0.500000 0.000000 1.500000
v 1.000000 0.000000 1.500000
v 1.000000 0.500000 1.500000
v 0.500000 0.500000 1.500000
v 0.500000 0.000000 1.000000
v 1.000000 0.000000 1.000000
v 1.000000 0.500000 1.000000
v 0.500000 0.500000 1.000000
v 0.500000 0.000000 0.500000
v 1.000000 0.000000 0.500000
v 1.000000 0.500000 0.500000
v 0.500000 0.500000 0.500000
v 1.000000 0.000000 0.000000
v 0.500000 0.000000 0.000000
v 0.500000 0.500000 0.000000
v 1.000000 0.500000 0.000000
v 0.000000 0.500000 1.500000
v 0.500000 1.000000 1.500000
v 0.000000 1.000000 1.500000
v 0.000000 0.500000 1.000000
v 0.500000 1.000000 1.000000
v 0.000000 1.000000 1.000000
v 0.000000 0.500000 0.500000
v 0.500000 1.000000 0.500000
v 0.000000 1.000000 0.500000
v 0.000000 0.500000 0.000000
v 0.000000 1.000000 0.000000
v 0.500000 1.000000 0.000000
v -0.500000 0.000000 1.500000
v 0.000000 0.000000 1.500000
v -0.500000 0.500000 1.500000
v -0.500000 0.000000 1.000000
v 0.000000 0.000000 1.000000
v -0.500000 0.500000 1.000000
v -0.500000 0.000000 0.500000
v 0.000000 0.000000 0.500000
v -0.500000 0.500000 0.500000
v 0.000000 0.000000 0.000000
v -0.500000 0.000000 0.000000
v -0.500000 0.500000 0.000000
vn 0.0000 0.0000 1.0000
vn 0.0000 -1.0000 0.0000
vn 0.0000 1.0000 0.0000
vn 1.0000 0.0000 0.0000
vn -1.0000 0.0000 0.0000
vn 0.0000 0.0000 -1.0000
usemtl Materiał
s 1
f 1//1 2//1 3//1 4//1
f 1//2 5//2 6//2 2//2
f 3//3 7//3 8//3 4//3
f 2//4 6//4 7//4 3//4
f 1//5 4//5 8//5 5//5
f 5//2 9//2 10//2 6//2
f 7//3 11//3 12//3 8//3
f 6//4 10//4 11//4 7//4
f 5//5 8//5 12//5 9//5
f 13//6 14//6 15//6 16//6
f 9//2 14//2 13//2 10//2
f 11//3 16//3 15//3 12//3
f 10//4 13//4 16//4 11//4
f 9//5 12//5 15//5 14//5
f 17//1 4//1 18//1 19//1
f 17//2 20//2 8//2 4//2
f 18//3 21//3 22//3 19//3
f 4//4 8//4 21//4 18//4
f 17//5 19//5 22//5 20//5
f 20//2 23//2 12//2 8//2
f 21//3 24//3 25//3 22//3
f 8//4 12//4 24//4 21//4
f 20//5 22//5 25//5 23//5
f 15//6 26//6 27//6 28//6
f 23//2 26//2 15//2 12//2
f 24//3 28//3 27//3 25//3
f 12//4 15//4 28//4 24//4
f 23//5 25//5 27//5 26//5
f 29//1 30//1 17//1 31//1
f 29//2 32//2 33//2 30//2
f 17//3 20//3 34//3 31//3
f 30//4 33//4 20//4 17//4
f 29//5 31//5 34//5 32//5
f 32//2 35//2 36//2 33//2
f 20//3 23//3 37//3 34//3
f 33//4 36//4 23//4 20//4
f 32//5 34//5 37//5 35//5
f 38//6 39//6 40//6 26//6
f 35//2 39//2 38//2 36//2
f 23//3 26//3 40//3 37//3
f 36//4 38//4 26//4 23//4
f 35//5 37//5 40//5 39//5
