# Blender v2.93.3 OBJ File: 'tent_obj.blend'
# www.blender.org
mtllib tent_blend_13.mtl
o tent
v 0.500000 0.000000 1.500000
v 1.000000 0.000000 1.500000
v 1.000000 0.500000 1.500000
v 0.500000 0.500000 1.500000
v 0.500000 0.000000 1.000000
v 1.000000 0.000000 1.000000
v 1.000000 0.500000 1.000000
v 0.500000 0.500000 1.000000
v 0.500000 0.000000 0.500000
v 1.000000 0.000000 0.500000
v 1.000000 0.500000 0.500000
v 0.500000 0.500000 0.500000
v 1.000000 0.000000 0.000000
v 0.500000 0.000000 0.000000
v 0.500000 0.500000 0.000000
v 1.000000 0.500000 0.000000
v 0.000000 0.500000 1.500000
v 0.500000 1.000000 1.500000
v 0.000000 1.000000 1.500000
v 0.000000 0.500000 1.000000
v 0.500000 1.000000 1.000000
v 0.000000 1.000000 1.000000
v 0.000000 0.500000 0.500000
v 0.500000 1.000000 0.500000
v 0.000000 1.000000 0.500000
v 0.000000 0.500000 0.000000
v 0.000000 1.000000 0.000000
v 0.500000 1.000000 0.000000
v -0.500000 0.000000 1.500000
v 0.000000 0.000000 1.500000
v -0.500000 0.500000 1.500000
v -0.500000 0.000000 1.000000
v 0.000000 0.000000 1.000000
v -0.500000 0.500000 1.000000
v -0.500000 0.000000 0.500000
v 0.000000 0.000000 0.500000
v -0.500000 0.500000 0.500000
v 0.000000 0.000000 0.000000
v -0.500000 0.000000 0.000000
v -0.500000 0.500000 0.000000
vn 0.0000 0.0000 1.0000
vn 0.0000 0.0000 -1.0000
vn 0.0000 -1.0000 0.0000
vn 1.0000 0.0000 0.0000
vn -1.0000 0.0000 0.0000
vn 0.0000 1.0000 0.0000
usemtl Materiał.005
s 1
f 1//1 2//1 3//1 4//1
f 13//2 14//2 15//2 16//2
f 17//1 4//1 18//1 19//1
f 15//2 26//2 27//2 28//2
f 29//1 30//1 17//1 31//1
f 38//2 39//2 40//2 26//2
usemtl Materiał.003
f 1//3 5//3 6//3 2//3
f 2//4 6//4 7//4 3//4
f 5//3 9//3 10//3 6//3
f 6//4 10//4 11//4 7//4
f 9//3 14//3 13//3 10//3
f 10//4 13//4 16//4 11//4
f 4//4 8//4 21//4 18//4
f 17//5 19//5 22//5 20//5
f 8//4 12//4 24//4 21//4
f 20//5 22//5 25//5 23//5
f 12//4 15//4 28//4 24//4
f 23//5 25//5 27//5 26//5
f 29//3 32//3 33//3 30//3
f 29//5 31//5 34//5 32//5
f 32//3 35//3 36//3 33//3
f 32//5 34//5 37//5 35//5
f 35//3 39//3 38//3 36//3
f 35//5 37//5 40//5 39//5
usemtl Materiał.004
f 3//6 7//6 8//6 4//6
f 7//6 11//6 12//6 8//6
f 11//6 16//6 15//6 12//6
f 18//6 21//6 22//6 19//6
f 21//6 24//6 25//6 22//6
f 24//6 28//6 27//6 25//6
f 17//6 20//6 34//6 31//6
f 20//6 23//6 37//6 34//6
f 23//6 26//6 40//6 37//6
usemtl Materiał.006
f 1//5 4//5 8//5 5//5
f 5//5 8//5 12//5 9//5
f 9//5 12//5 15//5 14//5
f 17//3 20//3 8//3 4//3
f 20//3 23//3 12//3 8//3
f 23//3 26//3 15//3 12//3
f 30//4 33//4 20//4 17//4
f 33//4 36//4 23//4 20//4
f 36//4 38//4 26//4 23//4
